<mxfile host="app.diagrams.net" modified="2023-06-01T07:54:34.042Z" agent="5.0 (Macintosh; Intel Mac OS X 10_15_7) AppleWebKit/537.36 (KHTML, like Gecko) Chrome/113.0.0.0 Safari/537.36" version="20.6.2" etag="enNgl8bt0ckdQ9EJpNCK" type="github">
  <diagram id="Re0tyrblCZsP9Vm3o1qq" name="第 1 页">
    <mxGraphModel dx="1011" dy="462" grid="1" gridSize="10" guides="1" tooltips="1" connect="1" arrows="1" fold="1" page="1" pageScale="1" pageWidth="827" pageHeight="1169" math="0" shadow="0">
      <root>
        <mxCell id="0" />
        <mxCell id="1" parent="0" />
        <mxCell id="pkjz_35HItkrrQwIqdnt-41" value="" style="shape=crossbar;whiteSpace=wrap;html=1;rounded=1;fillColor=#fff2cc;strokeColor=#d6b656;" vertex="1" parent="1">
          <mxGeometry x="41" y="74" width="160" height="10" as="geometry" />
        </mxCell>
        <mxCell id="pkjz_35HItkrrQwIqdnt-42" value="" style="shape=crossbar;whiteSpace=wrap;html=1;rounded=1;fillColor=#f8cecc;strokeColor=#b85450;" vertex="1" parent="1">
          <mxGeometry x="201" y="74" width="160" height="10" as="geometry" />
        </mxCell>
        <mxCell id="pkjz_35HItkrrQwIqdnt-43" value="" style="shape=crossbar;whiteSpace=wrap;html=1;rounded=1;fillColor=#bac8d3;strokeColor=#23445d;" vertex="1" parent="1">
          <mxGeometry x="361" y="74" width="160" height="10" as="geometry" />
        </mxCell>
        <mxCell id="pkjz_35HItkrrQwIqdnt-45" value="" style="shape=curlyBracket;whiteSpace=wrap;html=1;rounded=1;labelPosition=left;verticalLabelPosition=middle;align=right;verticalAlign=middle;direction=south;fillColor=#dae8fc;strokeColor=#6c8ebf;" vertex="1" parent="1">
          <mxGeometry x="81" y="54" width="179" height="20" as="geometry" />
        </mxCell>
        <mxCell id="pkjz_35HItkrrQwIqdnt-46" value="" style="shape=curlyBracket;whiteSpace=wrap;html=1;rounded=1;labelPosition=left;verticalLabelPosition=middle;align=right;verticalAlign=middle;direction=south;fillColor=#d5e8d4;strokeColor=#82b366;" vertex="1" parent="1">
          <mxGeometry x="265" y="54" width="90" height="20" as="geometry" />
        </mxCell>
        <mxCell id="pkjz_35HItkrrQwIqdnt-47" value="m1" style="text;html=1;align=center;verticalAlign=middle;resizable=0;points=[];autosize=1;strokeColor=none;fillColor=none;" vertex="1" parent="1">
          <mxGeometry x="150.5" y="24" width="40" height="30" as="geometry" />
        </mxCell>
        <mxCell id="pkjz_35HItkrrQwIqdnt-48" value="m2" style="text;html=1;align=center;verticalAlign=middle;resizable=0;points=[];autosize=1;strokeColor=none;fillColor=none;" vertex="1" parent="1">
          <mxGeometry x="290" y="24" width="40" height="30" as="geometry" />
        </mxCell>
        <mxCell id="pkjz_35HItkrrQwIqdnt-49" value="&lt;font style=&quot;font-size: 8px;&quot;&gt;Sub1&lt;/font&gt;" style="text;html=1;align=center;verticalAlign=middle;resizable=0;points=[];autosize=1;strokeColor=none;fillColor=none;" vertex="1" parent="1">
          <mxGeometry x="101" y="74" width="40" height="30" as="geometry" />
        </mxCell>
        <mxCell id="pkjz_35HItkrrQwIqdnt-50" value="&lt;font style=&quot;font-size: 8px;&quot;&gt;Sub2&lt;/font&gt;" style="text;html=1;align=center;verticalAlign=middle;resizable=0;points=[];autosize=1;strokeColor=none;fillColor=none;" vertex="1" parent="1">
          <mxGeometry x="265" y="74" width="40" height="30" as="geometry" />
        </mxCell>
        <mxCell id="pkjz_35HItkrrQwIqdnt-51" value="&lt;font style=&quot;font-size: 8px;&quot;&gt;Sub3&lt;/font&gt;" style="text;html=1;align=center;verticalAlign=middle;resizable=0;points=[];autosize=1;strokeColor=none;fillColor=none;" vertex="1" parent="1">
          <mxGeometry x="421" y="74" width="40" height="30" as="geometry" />
        </mxCell>
        <mxCell id="pkjz_35HItkrrQwIqdnt-66" value="" style="shape=partialRectangle;whiteSpace=wrap;html=1;left=0;right=0;fillColor=none;fontSize=8;" vertex="1" parent="1">
          <mxGeometry x="41" y="240" width="139" height="30" as="geometry" />
        </mxCell>
        <mxCell id="pkjz_35HItkrrQwIqdnt-71" value="m1" style="html=1;outlineConnect=0;whiteSpace=wrap;fillColor=#FFE0E0;shape=mxgraph.archimate3.event;fontSize=8;" vertex="1" parent="1">
          <mxGeometry x="112" y="245" width="49" height="20" as="geometry" />
        </mxCell>
        <mxCell id="pkjz_35HItkrrQwIqdnt-73" value="m2" style="html=1;outlineConnect=0;whiteSpace=wrap;fillColor=#FFE0E0;shape=mxgraph.archimate3.event;fontSize=8;" vertex="1" parent="1">
          <mxGeometry x="52" y="245" width="49" height="20" as="geometry" />
        </mxCell>
        <mxCell id="pkjz_35HItkrrQwIqdnt-74" value="&lt;b&gt;&lt;font style=&quot;font-size: 11px;&quot;&gt;HotSpot&lt;/font&gt;&lt;/b&gt;" style="rounded=1;whiteSpace=wrap;html=1;strokeWidth=2;fillWeight=4;hachureGap=8;hachureAngle=45;fillColor=#bac8d3;sketch=1;fontSize=8;strokeColor=#23445d;" vertex="1" parent="1">
          <mxGeometry x="243.5" y="225" width="75" height="60" as="geometry" />
        </mxCell>
        <mxCell id="pkjz_35HItkrrQwIqdnt-79" value="" style="shape=singleArrow;whiteSpace=wrap;html=1;fontSize=11;" vertex="1" parent="1">
          <mxGeometry x="190.5" y="245" width="40" height="20" as="geometry" />
        </mxCell>
        <mxCell id="pkjz_35HItkrrQwIqdnt-88" value="Flatten&amp;nbsp;mini trace and check entering" style="shape=umlLifeline;perimeter=lifelinePerimeter;whiteSpace=wrap;html=1;container=1;collapsible=0;recursiveResize=0;outlineConnect=0;fontSize=11;" vertex="1" parent="1">
          <mxGeometry x="410" y="170" width="84" height="350" as="geometry" />
        </mxCell>
        <mxCell id="pkjz_35HItkrrQwIqdnt-89" value="State detection of sub1" style="shape=umlLifeline;perimeter=lifelinePerimeter;whiteSpace=wrap;html=1;container=1;collapsible=0;recursiveResize=0;outlineConnect=0;fontSize=11;" vertex="1" parent="1">
          <mxGeometry x="530" y="170" width="100" height="350" as="geometry" />
        </mxCell>
        <mxCell id="pkjz_35HItkrrQwIqdnt-111" value="5: flat traversal of sub2 and entering is false" style="text;html=1;align=center;verticalAlign=middle;resizable=0;points=[];autosize=1;strokeColor=none;fillColor=none;fontSize=8;" vertex="1" parent="pkjz_35HItkrrQwIqdnt-89">
          <mxGeometry x="-80" y="180" width="180" height="20" as="geometry" />
        </mxCell>
        <mxCell id="pkjz_35HItkrrQwIqdnt-90" value="State Backend" style="shape=umlLifeline;perimeter=lifelinePerimeter;whiteSpace=wrap;html=1;container=1;collapsible=0;recursiveResize=0;outlineConnect=0;fontSize=11;" vertex="1" parent="1">
          <mxGeometry x="730" y="170" width="70" height="350" as="geometry" />
        </mxCell>
        <mxCell id="pkjz_35HItkrrQwIqdnt-105" value="3: counter +1, him event +1" style="text;html=1;align=center;verticalAlign=middle;resizable=0;points=[];autosize=1;strokeColor=none;fillColor=none;fontSize=8;" vertex="1" parent="pkjz_35HItkrrQwIqdnt-90">
          <mxGeometry x="-70" y="130" width="120" height="20" as="geometry" />
        </mxCell>
        <mxCell id="pkjz_35HItkrrQwIqdnt-92" value="" style="shape=umlLifeline;participant=umlEntity;perimeter=lifelinePerimeter;whiteSpace=wrap;html=1;container=1;collapsible=0;recursiveResize=0;verticalAlign=top;spacingTop=36;outlineConnect=0;fontSize=11;size=30;" vertex="1" parent="1">
          <mxGeometry x="350" y="170" width="30" height="350" as="geometry" />
        </mxCell>
        <mxCell id="pkjz_35HItkrrQwIqdnt-95" value="" style="html=1;verticalAlign=bottom;endArrow=block;rounded=0;fontSize=11;" edge="1" parent="1" target="pkjz_35HItkrrQwIqdnt-88">
          <mxGeometry width="80" relative="1" as="geometry">
            <mxPoint x="365" y="237" as="sourcePoint" />
            <mxPoint x="445" y="237" as="targetPoint" />
          </mxGeometry>
        </mxCell>
        <mxCell id="pkjz_35HItkrrQwIqdnt-96" value="State detection of sub2" style="shape=umlLifeline;perimeter=lifelinePerimeter;whiteSpace=wrap;html=1;container=1;collapsible=0;recursiveResize=0;outlineConnect=0;fontSize=11;" vertex="1" parent="1">
          <mxGeometry x="630" y="170" width="70" height="350" as="geometry" />
        </mxCell>
        <mxCell id="pkjz_35HItkrrQwIqdnt-97" value="" style="html=1;verticalAlign=bottom;endArrow=block;rounded=0;fontSize=11;" edge="1" parent="1" source="pkjz_35HItkrrQwIqdnt-88" target="pkjz_35HItkrrQwIqdnt-89">
          <mxGeometry width="80" relative="1" as="geometry">
            <mxPoint x="450" y="264.37" as="sourcePoint" />
            <mxPoint x="560" y="330" as="targetPoint" />
            <Array as="points">
              <mxPoint x="480" y="260" />
              <mxPoint x="530" y="260" />
            </Array>
          </mxGeometry>
        </mxCell>
        <mxCell id="pkjz_35HItkrrQwIqdnt-99" value="&lt;span style=&quot;font-size: 8px;&quot;&gt;1:&amp;nbsp; flatten m1&lt;/span&gt;" style="text;html=1;align=center;verticalAlign=middle;resizable=0;points=[];autosize=1;strokeColor=none;fillColor=none;fontSize=11;" vertex="1" parent="1">
          <mxGeometry x="361" y="210" width="70" height="30" as="geometry" />
        </mxCell>
        <mxCell id="pkjz_35HItkrrQwIqdnt-102" value="" style="html=1;verticalAlign=bottom;endArrow=block;rounded=0;fontSize=8;" edge="1" parent="1" source="pkjz_35HItkrrQwIqdnt-88" target="pkjz_35HItkrrQwIqdnt-96">
          <mxGeometry width="80" relative="1" as="geometry">
            <mxPoint x="450" y="285" as="sourcePoint" />
            <mxPoint x="530" y="285" as="targetPoint" />
            <Array as="points">
              <mxPoint x="520" y="290" />
            </Array>
          </mxGeometry>
        </mxCell>
        <mxCell id="pkjz_35HItkrrQwIqdnt-101" value="2:&amp;nbsp; flat traversal of sub1" style="text;html=1;align=center;verticalAlign=middle;resizable=0;points=[];autosize=1;strokeColor=none;fillColor=none;fontSize=8;" vertex="1" parent="1">
          <mxGeometry x="450" y="240" width="110" height="20" as="geometry" />
        </mxCell>
        <mxCell id="pkjz_35HItkrrQwIqdnt-103" value="2:&amp;nbsp; flat traversal of sub2 and entering is true" style="text;html=1;align=center;verticalAlign=middle;resizable=0;points=[];autosize=1;strokeColor=none;fillColor=none;fontSize=8;" vertex="1" parent="1">
          <mxGeometry x="450" y="270" width="180" height="20" as="geometry" />
        </mxCell>
        <mxCell id="pkjz_35HItkrrQwIqdnt-104" value="" style="html=1;verticalAlign=bottom;endArrow=block;rounded=0;fontSize=8;" edge="1" parent="1" source="pkjz_35HItkrrQwIqdnt-96" target="pkjz_35HItkrrQwIqdnt-90">
          <mxGeometry width="80" relative="1" as="geometry">
            <mxPoint x="700" y="310" as="sourcePoint" />
            <mxPoint x="770" y="310" as="targetPoint" />
            <Array as="points">
              <mxPoint x="730" y="320" />
            </Array>
          </mxGeometry>
        </mxCell>
        <mxCell id="pkjz_35HItkrrQwIqdnt-108" value="" style="html=1;verticalAlign=bottom;endArrow=block;rounded=0;fontSize=8;" edge="1" parent="1" source="pkjz_35HItkrrQwIqdnt-92" target="pkjz_35HItkrrQwIqdnt-88">
          <mxGeometry width="80" relative="1" as="geometry">
            <mxPoint x="361" y="360" as="sourcePoint" />
            <mxPoint x="441" y="360" as="targetPoint" />
          </mxGeometry>
        </mxCell>
        <mxCell id="pkjz_35HItkrrQwIqdnt-109" value="4: flatten m2" style="text;html=1;align=center;verticalAlign=middle;resizable=0;points=[];autosize=1;strokeColor=none;fillColor=none;fontSize=8;" vertex="1" parent="1">
          <mxGeometry x="361" y="320" width="70" height="20" as="geometry" />
        </mxCell>
        <mxCell id="pkjz_35HItkrrQwIqdnt-110" value="" style="html=1;verticalAlign=bottom;endArrow=block;rounded=0;fontSize=8;" edge="1" parent="1" source="pkjz_35HItkrrQwIqdnt-88" target="pkjz_35HItkrrQwIqdnt-96">
          <mxGeometry width="80" relative="1" as="geometry">
            <mxPoint x="461" y="380" as="sourcePoint" />
            <mxPoint x="541" y="380" as="targetPoint" />
            <Array as="points">
              <mxPoint x="580" y="370" />
            </Array>
          </mxGeometry>
        </mxCell>
      </root>
    </mxGraphModel>
  </diagram>
</mxfile>
